<?xml version="1.0" encoding="UTF-8" standalone="no"?>
<!-- Created with Inkscape (http://www.inkscape.org/) -->

<svg
   width="32.142906mm"
   height="29.061537mm"
   viewBox="0 0 32.142906 29.061537"
   version="1.1"
   id="svg5"
   xml:space="preserve"
   xmlns="http://www.w3.org/2000/svg"
   xmlns:svg="http://www.w3.org/2000/svg"><defs
     id="defs2"><clipPath
       id="a"><path
         d="M 0,0 H 2463.79 V 1098 H 0 Z"
         id="path235" /></clipPath><linearGradient
       id="paint0_linear"
       x1="32.976898"
       y1="51.442101"
       x2="32.976898"
       y2="21.769899"
       gradientUnits="userSpaceOnUse"><stop
         stop-color="#DEEDC9"
         id="stop4" /><stop
         offset="0.6606"
         stop-color="#8BBA25"
         id="stop5" /></linearGradient></defs><g
     id="layer1"
     transform="translate(-85,-92)"><g
       id="g21"
       transform="matrix(0.28222222,0,0,0.28222222,82.354167,97.354167)"><path
         id="path1052"
         d="m 66.407896,9.375 c -11.805271,0 -21.811217,8.003196 -24.912392,18.846621 -2.695245,-5.751517 -8.535934,-9.780938 -15.263394,-9.780938 -9.25185,0 -16.85711,7.605263 -16.85711,16.857108 0,9.251833 7.60526,16.860567 16.85711,16.860567 6.72746,0 12.568149,-4.031885 15.263395,-9.784412 3.101175,10.84425 13.10712,18.850106 24.912391,18.850106 11.717964,0 21.67289,-7.885111 24.853382,-18.607048 2.745036,5.621934 8.513436,9.541354 15.145342,9.541354 9.25185,0 16.86057,-7.608734 16.86057,-16.860567 0,-9.251845 -7.60872,-16.857108 -16.86057,-16.857108 -6.631906,0 -12.400306,3.916965 -15.145342,9.537891 C 88.080786,17.257475 78.12586,9.375 66.407896,9.375 Z m 0,9.895518 c 8.911648,0 16.030748,7.115653 16.030748,16.027273 0,8.911605 -7.1191,16.030737 -16.030748,16.030737 -8.911593,0 -16.027247,-7.119132 -16.027247,-16.030737 0,-8.91162 7.115653,-16.027271 16.027247,-16.027273 z M 26.23211,28.336202 c 3.90438,0 6.96505,3.057188 6.96505,6.961589 0,3.904386 -3.06067,6.965049 -6.96505,6.965049 -3.90439,0 -6.96161,-3.060663 -6.96161,-6.965049 0,-3.904401 3.05722,-6.961589 6.96161,-6.961589 z m 80.17451,0 c 3.90442,0 6.96506,3.057188 6.96506,6.961589 0,3.904386 -3.06066,6.965049 -6.96506,6.965049 -3.90436,0 -6.961576,-3.060663 -6.961576,-6.965049 0,-3.904401 3.057226,-6.961589 6.961576,-6.961589 z"
         style="color:#000000;font-style:normal;font-variant:normal;font-weight:normal;font-stretch:normal;font-size:medium;line-height:normal;font-family:sans-serif;text-indent:0;text-align:start;text-decoration:none;text-decoration-line:none;text-decoration-style:solid;text-decoration-color:#000000;letter-spacing:normal;word-spacing:normal;text-transform:none;writing-mode:lr-tb;direction:ltr;baseline-shift:baseline;text-anchor:start;white-space:normal;clip-rule:nonzero;display:inline;overflow:visible;visibility:visible;opacity:1;isolation:auto;mix-blend-mode:normal;color-interpolation:sRGB;color-interpolation-filters:linearRGB;solid-color:#000000;solid-opacity:1;fill:#0082c9;fill-opacity:1;fill-rule:nonzero;stroke:none;stroke-width:5.5659;stroke-linecap:butt;stroke-linejoin:miter;stroke-miterlimit:10;stroke-dasharray:none;stroke-dashoffset:0;stroke-opacity:1;color-rendering:auto;image-rendering:auto;shape-rendering:auto;text-rendering:auto;enable-background:accumulate" /><path
         style="fill:#0082c9;fill-opacity:1;stroke-width:0.470385"
         d="m 21.235693,69.043756 c -0.32926,0 -0.47147,0.187936 -0.47147,0.517242 V 83.20368 c 0,0.32927 0.14221,0.51495 0.47147,0.51495 h 0.37763 c 0.32927,0 0.51494,-0.18568 0.51494,-0.51495 V 71.874833 l 7.4473,11.557727 c 0.0324,0.0505 0.0677,0.0842 0.10299,0.12123 0.0106,0.0125 0.0179,0.0256 0.0298,0.0366 0.0317,0.0289 0.0665,0.044 0.10065,0.0618 0.019,0.01 0.0338,0.0247 0.055,0.032 0.0148,0.005 0.0304,0.002 0.0458,0.006 0.0525,0.0135 0.10618,0.0275 0.16936,0.0275 h 0.37534 c 0.32926,0 0.47146,-0.18567 0.47146,-0.51495 V 69.560768 c 0,-0.329305 -0.1422,-0.517241 -0.47146,-0.517241 h -0.37534 c -0.32929,0 -0.51724,0.187936 -0.51724,0.517241 V 80.89011 l -7.4473,-11.557716 c -0.0254,-0.03939 -0.0561,-0.06339 -0.0847,-0.0939 -0.086,-0.121611 -0.2222,-0.194545 -0.41654,-0.194545 z m 89.420157,0.187676 c -0.32926,0 -0.18767,0.187956 -0.18767,0.517241 v 4.657417 c 0,0.47037 0.0456,0.79872 0.0456,0.79872 h -0.0456 c 0,0 -0.89419,-2.06893 -3.38722,-2.06893 -2.72821,0 -4.65771,2.16372 -4.56357,5.36231 0,3.19862 1.74024,5.41041 4.51551,5.41041 2.68118,0 3.5749,-2.16508 3.5749,-2.16508 h 0.048 c 0,0 -0.0939,0.28283 -0.0939,0.65913 v 0.79874 c 0,0.32926 0.18796,0.47148 0.51726,0.47148 h 0.32955 c 0.32927,0 0.46917,-0.18798 0.46917,-0.51724 V 69.748673 c 0,-0.329285 -0.51754,-0.517241 -0.84681,-0.517241 z m -36.549859,0.0481 c -0.329276,0 -0.13961,0.187976 -0.13961,0.517241 V 81.32017 c 0,2.25783 1.503766,2.54039 2.350463,2.54039 0.376301,0 0.517217,-0.18796 0.517217,-0.51721 v -0.32958 c 0,-0.32926 -0.188212,-0.46918 -0.423394,-0.46918 -0.470405,-0.047 -1.080249,-0.18887 -1.080249,-1.50594 V 69.79677 c 0,-0.329266 -0.517531,-0.517241 -0.846807,-0.517241 z M 57.220266,70.50169 c -0.32927,0 -0.517238,0.187975 -0.517238,0.51724 v 2.44659 1.17638 5.31423 c 0,2.44599 1.365105,3.81064 3.622946,3.81064 0.42334,0 0.563011,-0.13993 0.563011,-0.46918 v -0.2838 c 0,-0.37629 -0.139671,-0.47024 -0.563011,-0.51724 -0.799652,-0.047 -2.258905,-0.32912 -2.258905,-2.72809 v -5.17464 h 2.117009 c 0.329268,0 0.517238,-0.1399 0.517238,-0.46918 v -0.1419 c 0,-0.32926 -0.18797,-0.51722 -0.517238,-0.51722 h -2.117009 v -2.44659 c 0,-0.329265 -0.139909,-0.51724 -0.469177,-0.51724 z m -18.734963,2.63427 c -2.82229,0 -5.08192,2.02359 -5.12888,5.41037 0,3.19859 2.35289,5.40809 5.41039,5.40809 1.646328,0 2.86852,-0.70495 3.432986,-1.12831 0.23526,-0.18814 0.283014,-0.42392 0.141896,-0.65912 l -0.141896,-0.23346 c -0.141115,-0.28223 -0.374612,-0.33005 -0.656846,-0.14188 -0.470383,0.37629 -1.413295,0.94064 -2.730371,0.94064 -2.116709,0 -3.951319,-1.50604 -3.998279,-4.14019 h 7.479331 c 0.282247,0 0.517238,-0.23501 0.517238,-0.51725 0,-2.9634 -1.550291,-4.93889 -4.325569,-4.93889 z m 29.223883,0 c -3.057482,0 -5.409203,2.25755 -5.456161,5.45614 0,3.1986 2.352896,5.41039 5.410387,5.41039 1.881541,0 3.151307,-0.89493 3.668718,-1.31828 0.235262,-0.2352 0.280729,-0.42265 0.139619,-0.7049 L 71.33213,81.79165 c -0.188136,-0.28225 -0.376902,-0.33005 -0.659131,-0.14191 -0.470383,0.42334 -1.457552,1.08255 -2.915751,1.08255 -2.257826,0 -4.046348,-1.69419 -4.046348,-4.14019 0,-2.49302 1.788522,-4.18596 4.046348,-4.18596 1.223008,0 2.115816,0.61137 2.58618,0.94065 0.282241,0.18807 0.516748,0.18838 0.704913,-0.0938 l 0.1419,-0.23572 c 0.235271,-0.28224 0.187125,-0.51677 -0.0481,-0.7049 -0.517422,-0.42337 -1.645515,-1.17638 -3.432986,-1.17638 z m 15.899301,0 c -3.010451,0 -5.456156,2.30482 -5.456156,5.36231 0,3.10451 2.445705,5.45615 5.456156,5.45615 3.010478,0 5.456168,-2.35164 5.456168,-5.45615 0,-3.05749 -2.44569,-5.36231 -5.456168,-5.36231 z m -30.429991,0.15793 c -0.11518,0.0184 -0.226037,0.0959 -0.331857,0.22197 l -1.904164,2.26805 -1.423546,1.69818 -2.158205,-2.57015 -1.169505,-1.39608 c -0.105876,-0.12611 -0.225795,-0.19525 -0.350163,-0.20597 -0.124354,-0.01 -0.253796,0.0361 -0.379919,0.14189 l -0.288371,0.24258 c -0.252223,0.21167 -0.23901,0.44583 -0.02745,0.69807 l 1.904166,2.26803 1.579172,1.88357 -2.311543,2.75326 c -0.0024,0.002 -0.0035,0.005 -0.0046,0.006 l -1.167215,1.38923 c -0.211653,0.25223 -0.188132,0.51842 0.06408,0.73009 l 0.288368,0.2403 c 0.252239,0.21164 0.481813,0.15841 0.693465,-0.0939 l 1.901876,-2.26806 1.425834,-1.69818 2.158204,2.57244 c 10e-4,0.002 0.0035,0.004 0.0046,0.005 l 1.164928,1.3915 c 0.211652,0.25223 0.477834,0.27337 0.730081,0.0617 l 0.288371,-0.2403 c 0.252237,-0.21165 0.239134,-0.44581 0.02746,-0.69805 l -1.904161,-2.27034 -1.579177,-1.88129 2.311546,-2.75554 c 0.0024,-0.002 0.0035,-0.004 0.0046,-0.006 l 1.167214,-1.38921 c 0.211651,-0.25224 0.188132,-0.51844 -0.06408,-0.73009 l -0.288371,-0.2403 c -0.126112,-0.10587 -0.246408,-0.14655 -0.361607,-0.12815 z m 38.662308,0.0779 c -0.32928,0 -0.47148,0.18796 -0.47148,0.51723 v 6.06722 c 0,2.6812 1.9757,3.99829 4.42169,3.99829 2.446,0 4.421696,-1.31709 4.421696,-3.99829 v -6.06723 c 0.047,-0.32926 -0.13991,-0.51723 -0.469176,-0.51723 h -0.37763 c -0.32927,0 -0.51724,0.18797 -0.51724,0.51723 v 5.69189 c 0,1.59931 -1.035,3.05766 -3.05765,3.05766 -1.9756,0 -3.05763,-1.45835 -3.05763,-3.05766 v -5.69189 c 0,-0.32926 -0.18797,-0.51723 -0.51726,-0.51723 z m -53.403561,0.94063 c 1.505226,0 2.82161,1.08155 2.915753,3.24531 h -6.490633 c 0.32927,-2.11674 1.83447,-3.24531 3.57488,-3.24531 z m 45.171244,0.0939 c 2.210809,0 3.998303,1.74023 3.998303,4.09214 0,2.44598 -1.787494,4.23401 -3.998303,4.23401 -2.210781,0 -3.999385,-1.83505 -4.046332,-4.23401 0,-2.30488 1.835551,-4.09214 4.046332,-4.09214 z m 23.566303,0 c 2.21082,0 3.29339,2.02346 3.29339,4.1402 0,2.9634 -1.60102,4.18595 -3.34144,4.18595 -1.92856,0 -3.24413,-1.6459 -3.29108,-4.18595 0,-2.63415 1.50465,-4.1402 3.33913,-4.1402 z"
         id="path1174" /></g><g
       id="g191"
       transform="matrix(0.06188119,0,0,0.06188119,85,92)">
	<path
   class="st0"
   d="m 161.6,154.7 c 0,3.9 -3.2,6.9 -6.9,6.9 H 6.9 C 3,161.6 0,158.4 0,154.7 V 6.9 C 0,3 3.2,0 6.9,0 h 147.8 c 3.9,0 6.9,3.2 6.9,6.9 z"
   id="path183" />
	<g
   id="g187">
		<path
   class="st1"
   d="m 161.6,154.7 c 0,3.9 -3.2,6.9 -6.9,6.9 H 55.3 l -32.2,-32.7 20,-32.7 59.4,-73.8 58.9,60.7 z"
   id="path185" />
	</g>
	<path
   class="st2"
   d="m 132.7,90.3 h -17 l -18,-30.6 c 4,-0.8 7,-4.4 7,-8.6 V 28 c 0,-4.9 -3.9,-8.8 -8.8,-8.8 h -30 c -4.9,0 -8.8,3.9 -8.8,8.8 v 23.1 c 0,4.3 3,7.8 6.9,8.6 L 46,90.4 H 29 c -4.9,0 -8.8,3.9 -8.8,8.8 v 23.1 c 0,4.9 3.9,8.8 8.8,8.8 h 30 c 4.9,0 8.8,-3.9 8.8,-8.8 V 99.2 c 0,-4.9 -3.9,-8.8 -8.8,-8.8 H 56.1 L 73.9,60 h 13.9 l 17.9,30.4 h -3 c -4.9,0 -8.8,3.9 -8.8,8.8 v 23.1 c 0,4.9 3.9,8.8 8.8,8.8 h 30 c 4.9,0 8.8,-3.9 8.8,-8.8 V 99.2 c 0,-4.9 -3.9,-8.9 -8.8,-8.9 z"
   id="path189" />
</g><g
       clip-path="url(#a)"
       transform="matrix(0.0040592,0,0,-0.0040592,107.04437,99.381002)"
       id="g244"
       style="display:none"><path
         d="M 1917.92,1098.01 C 1616.39,1098.01 1372,853.566 1372,552.113 1372,250.582 1616.39,6.172 1917.92,6.172 c 301.48,0 545.87,244.41 545.87,545.941 0,301.453 -244.39,545.897 -545.87,545.897 m 0,-897.233 c -194.03,0 -351.33,157.285 -351.33,351.285 0,194.012 157.3,351.321 351.33,351.321 193.98,0 351.3,-157.309 351.3,-351.321 0,-194 -157.32,-351.285 -351.3,-351.285 M 1055.35,831.906 917.441,693.957 1071.26,548.988 918.652,405.152 1056.5,267.281 1338.23,548.988 1055.35,831.906"
         fill="#5549a7"
         id="path240" /><path
         d="M 548.184,0 C 412.102,0 288.652,47.219 181.328,140.582 60.957,245.758 0,384.41 0,552.617 c 0,149.336 55.223,279.035 164.082,385.559 107.766,106.004 239.297,159.814 390.762,159.814 150.254,0 280.91,-54.41 388.144,-161.623 L 800.566,793.918 c -69.101,69.07 -149.461,102.656 -245.722,102.656 -98.106,0 -179.785,-33.445 -249.715,-102.176 -69.797,-68.363 -103.691,-147.394 -103.691,-241.781 0,-109.027 36.753,-194.125 112.222,-260.082 70.461,-61.23 147.18,-91.113 234.524,-91.113 99.738,0 182.414,33.359 252.785,101.933 L 941.594,159.078 C 833.262,53.512 700.906,0 548.184,0"
         fill="#9a9a96"
         id="path242" /></g><g
       style="fill:none"
       id="g1"
       transform="matrix(0.16660481,0,0,0.16660481,106.23029,92)"><path
         fill-rule="evenodd"
         clip-rule="evenodd"
         d="M 28.9406,59.2644 2.20792,46.9066 c -2.2772269,-1.0789 -2.2772269,-2.7462 0,-3.727 l 9.30688,-4.3154 17.3268,8.0424 c 2.2772,1.0788 5.9406,1.0788 8.1188,0 l 17.3267,-8.0424 9.307,4.3154 c 2.2772,1.0789 2.2772,2.7462 0,3.727 L 36.8614,59.2644 c -2.0792,0.9808 -5.7426,0.9808 -7.9208,0 z"
         fill="#ff6f3d"
         id="path1" /><path
         fill-rule="evenodd"
         clip-rule="evenodd"
         d="M 28.9406,44.0606 2.20792,31.7027 c -2.277227,-1.0788 -2.277227,-2.7461 0,-3.7269 l 9.10888,-4.2174 17.6238,8.1405 c 2.2772,1.0789 5.9406,1.0789 8.1188,0 l 17.6238,-8.1405 9.1089,4.2174 c 2.2772,1.0788 2.2772,2.7462 0,3.7269 L 37.0594,44.0606 c -2.2772,1.0788 -5.9406,1.0788 -8.1188,0 z"
         fill="url(#paint0_linear)"
         id="path2"
         style="fill:url(#paint0_linear)" /><path
         fill-rule="evenodd"
         clip-rule="evenodd"
         d="M 28.9406,44.0606 2.20792,31.7027 c -2.277227,-1.0788 -2.277227,-2.7461 0,-3.7269 l 9.10888,-4.2174 17.6238,8.1405 c 2.2772,1.0789 5.9406,1.0789 8.1188,0 l 17.6238,-8.1405 9.1089,4.2174 c 2.2772,1.0788 2.2772,2.7462 0,3.7269 L 37.0594,44.0606 c -2.2772,1.0788 -5.9406,1.0788 -8.1188,0 z"
         fill="#95c038"
         id="path3" /><path
         fill-rule="evenodd"
         clip-rule="evenodd"
         d="M 28.9406,29.2518 2.20792,16.8939 c -2.277227,-1.0788 -2.277227,-2.7462 0,-3.7269 L 28.9406,0.809143 c 2.2772,-1.078857 5.9406,-1.078857 8.1188,0 L 63.7921,13.167 c 2.2772,1.0788 2.2772,2.7462 0,3.7269 L 37.0594,29.2518 c -2.2772,0.9807 -5.9406,0.9807 -8.1188,0 z"
         fill="#5dc0e8"
         id="path4" /></g></g><style
     type="text/css"
     id="style181">
	.st0{fill:#F08705;}
	.st1{fill:#DF6C0C;}
	.st2{fill:#FFFFFF;}
	.st3{fill:#333333;}
</style></svg>
