<?xml version="1.0" encoding="UTF-8"?> <svg xmlns="http://www.w3.org/2000/svg" id="Слой_1" data-name="Слой 1" viewBox="0 0 584 522"><defs><style>.cls-1,.cls-2,.cls-3{fill:#fff;}.cls-2,.cls-3{stroke:#000;stroke-linecap:round;stroke-miterlimit:10;}.cls-2{stroke-width:8px;}.cls-3{stroke-width:16px;}</style></defs><circle class="cls-1" cx="278" cy="200" r="46"></circle><path d="M888,448a38,38,0,1,1-38,38,38,38,0,0,1,38-38m0-16a54,54,0,1,0,54,54,54,54,0,0,0-54-54Z" transform="translate(-610 -286)"></path><circle cx="395" cy="325" r="30"></circle><path d="M1005,589a22,22,0,1,1-22,22,22,22,0,0,1,22-22m0-16a38,38,0,1,0,38,38,38,38,0,0,0-38-38Z" transform="translate(-610 -286)"></path><path d="M1050.42,437.24A30.59,30.59,0,1,1,1081,406.65,30.62,30.62,0,0,1,1050.42,437.24Z" transform="translate(-610 -286)"></path><path d="M1050.42,384.07a22.59,22.59,0,1,1-22.59,22.58,22.61,22.61,0,0,1,22.59-22.58m0-16A38.59,38.59,0,1,0,1089,406.65a38.59,38.59,0,0,0-38.58-38.58Z" transform="translate(-610 -286)"></path><circle cx="131.42" cy="87.65" r="24.58"></circle><path d="M741.42,357.07a16.59,16.59,0,1,1-16.59,16.58,16.6,16.6,0,0,1,16.59-16.58m0-16A32.59,32.59,0,1,0,774,373.65a32.59,32.59,0,0,0-32.58-32.58Z" transform="translate(-610 -286)"></path><circle cx="148.08" cy="369.49" r="27.96"></circle><path d="M758.08,635.52a20,20,0,1,1-20,20,20,20,0,0,1,20-20m0-16a36,36,0,1,0,36,36,36,36,0,0,0-36-36Z" transform="translate(-610 -286)"></path><line class="cls-2" x1="171.19" y1="341.94" x2="247.19" y2="244.35"></line><line class="cls-2" x1="314.79" y1="239.52" x2="366.76" y2="299.58"></line><line class="cls-2" x1="329.85" y1="176.15" x2="411" y2="137"></line><line class="cls-2" x1="235.14" y1="167.15" x2="158.19" y2="106.21"></line><circle class="cls-3" cx="38" cy="240" r="30"></circle><circle class="cls-3" cx="301.5" cy="31.5" r="23.5"></circle><circle class="cls-3" cx="329.5" cy="485.5" r="28.5"></circle><circle class="cls-3" cx="545" cy="271" r="31"></circle><line class="cls-2" x1="55" y1="210" x2="112.11" y2="113.9"></line><line class="cls-2" x1="55" y1="264.72" x2="119.83" y2="347.25"></line><line class="cls-2" x1="176.13" y1="391.99" x2="294" y2="471"></line><line class="cls-2" x1="350" y1="457" x2="384.81" y2="361.61"></line><line class="cls-2" x1="431.1" y1="313.13" x2="514" y2="287"></line><line class="cls-2" x1="529.17" y1="244.35" x2="469.49" y2="146"></line><line class="cls-2" x1="323.89" y1="38.64" x2="411" y2="95.7"></line><line class="cls-2" x1="278" y1="31" x2="158.19" y2="69.1"></line></svg> 