<?xml version="1.0" encoding="UTF-8" standalone="no"?>
<!-- Created with Inkscape (http://www.inkscape.org/) -->

<svg
   width="100mm"
   height="100.00002mm"
   viewBox="0 0 100 100.00002"
   version="1.1"
   id="svg5"
   inkscape:version="1.1.2 (0a00cf5339, 2022-02-04)"
   sodipodi:docname="Zeichnung.svg"
   xmlns:inkscape="http://www.inkscape.org/namespaces/inkscape"
   xmlns:sodipodi="http://sodipodi.sourceforge.net/DTD/sodipodi-0.dtd"
   xmlns="http://www.w3.org/2000/svg"
   xmlns:svg="http://www.w3.org/2000/svg">
  <sodipodi:namedview
     id="namedview7"
     pagecolor="#ffffff"
     bordercolor="#666666"
     borderopacity="1.0"
     inkscape:pageshadow="2"
     inkscape:pageopacity="0.0"
     inkscape:pagecheckerboard="0"
     inkscape:document-units="mm"
     showgrid="false"
     inkscape:zoom="0.70710678"
     inkscape:cx="290.62089"
     inkscape:cy="238.29498"
     inkscape:window-width="1685"
     inkscape:window-height="1376"
     inkscape:window-x="1755"
     inkscape:window-y="27"
     inkscape:window-maximized="0"
     inkscape:current-layer="layer1"
     inkscape:lockguides="false" />
  <defs
     id="defs2">
    <inkscape:path-effect
       effect="skeletal"
       id="path-effect7517"
       is_visible="true"
       lpeversion="1"
       pattern="M 0,4.9921382 C 0,2.2364779 2.2364779,0 4.9921382,0 c 2.7556604,0 4.9921383,2.2364779 4.9921383,4.9921382 0,2.7556604 -2.2364779,4.9921383 -4.9921383,4.9921383 C 2.2364779,9.9842765 0,7.7477986 0,4.9921382 Z"
       copytype="single_stretched"
       prop_scale="1"
       scale_y_rel="false"
       spacing="0"
       normal_offset="0"
       tang_offset="0"
       prop_units="false"
       vertical_pattern="false"
       hide_knot="false"
       fuse_tolerance="0" />
    <inkscape:path-effect
       effect="spiro"
       id="path-effect7515"
       is_visible="true"
       lpeversion="1" />
    <inkscape:path-effect
       effect="simplify"
       id="path-effect7513"
       is_visible="true"
       lpeversion="1"
       steps="1"
       threshold="0.00275"
       smooth_angles="360"
       helper_size="0"
       simplify_individual_paths="false"
       simplify_just_coalesce="false" />
    <inkscape:path-effect
       effect="skeletal"
       id="path-effect7509"
       is_visible="true"
       lpeversion="1"
       pattern="M 0,4.9921382 C 0,2.2364779 2.2364779,0 4.9921382,0 c 2.7556604,0 4.9921383,2.2364779 4.9921383,4.9921382 0,2.7556604 -2.2364779,4.9921383 -4.9921383,4.9921383 C 2.2364779,9.9842765 0,7.7477986 0,4.9921382 Z"
       copytype="single_stretched"
       prop_scale="1"
       scale_y_rel="false"
       spacing="0"
       normal_offset="0"
       tang_offset="0"
       prop_units="false"
       vertical_pattern="false"
       hide_knot="false"
       fuse_tolerance="0" />
    <inkscape:path-effect
       effect="simplify"
       id="path-effect7505"
       is_visible="true"
       lpeversion="1"
       steps="1"
       threshold="0.00275"
       smooth_angles="360"
       helper_size="0"
       simplify_individual_paths="false"
       simplify_just_coalesce="false" />
    <inkscape:path-effect
       effect="skeletal"
       id="path-effect7501"
       is_visible="true"
       lpeversion="1"
       pattern="M 0,4.9921382 C 0,2.2364779 2.2364779,0 4.9921382,0 c 2.7556604,0 4.9921383,2.2364779 4.9921383,4.9921382 0,2.7556604 -2.2364779,4.9921383 -4.9921383,4.9921383 C 2.2364779,9.9842765 0,7.7477986 0,4.9921382 Z"
       copytype="single_stretched"
       prop_scale="1"
       scale_y_rel="false"
       spacing="0"
       normal_offset="0"
       tang_offset="0"
       prop_units="false"
       vertical_pattern="false"
       hide_knot="false"
       fuse_tolerance="0" />
    <inkscape:path-effect
       effect="simplify"
       id="path-effect7497"
       is_visible="true"
       lpeversion="1"
       steps="1"
       threshold="0.00275"
       smooth_angles="360"
       helper_size="0"
       simplify_individual_paths="false"
       simplify_just_coalesce="false" />
    <linearGradient
       id="linearGradient7011"
       inkscape:swatch="solid">
      <stop
         style="stop-color:#000000;stop-opacity:1;"
         offset="0"
         id="stop7009" />
    </linearGradient>
    <inkscape:path-effect
       effect="skeletal"
       id="path-effect2226"
       is_visible="true"
       lpeversion="1"
       pattern="m 4.274122,7.8177858 c 0,-2.7556603 2.2364779,-4.9921382 4.9921382,-4.9921382 2.7556608,0 4.9921378,2.2364779 4.9921378,4.9921382 0,2.7556602 -2.236477,4.9921382 -4.9921378,4.9921382 -2.7556603,0 -4.9921382,-2.236478 -4.9921382,-4.9921382 z"
       copytype="single_stretched"
       prop_scale="1"
       scale_y_rel="false"
       spacing="0"
       normal_offset="0"
       tang_offset="0"
       prop_units="false"
       vertical_pattern="false"
       hide_knot="false"
       fuse_tolerance="0" />
    <inkscape:path-effect
       effect="spiro"
       id="path-effect2224"
       is_visible="true"
       lpeversion="1" />
    <inkscape:path-effect
       effect="simplify"
       id="path-effect2222"
       is_visible="true"
       lpeversion="1"
       steps="1"
       threshold="0.00275"
       smooth_angles="360"
       helper_size="0"
       simplify_individual_paths="false"
       simplify_just_coalesce="false" />
    <inkscape:path-effect
       effect="skeletal"
       id="path-effect2218"
       is_visible="true"
       lpeversion="1"
       pattern="M 0,4.9921382 C 0,2.2364779 2.2364779,0 4.9921382,0 c 2.7556604,0 4.9921383,2.2364779 4.9921383,4.9921382 0,2.7556604 -2.2364779,4.9921383 -4.9921383,4.9921383 C 2.2364779,9.9842765 0,7.7477986 0,4.9921382 Z"
       copytype="single_stretched"
       prop_scale="1"
       scale_y_rel="false"
       spacing="0"
       normal_offset="0"
       tang_offset="0"
       prop_units="false"
       vertical_pattern="false"
       hide_knot="false"
       fuse_tolerance="0" />
    <inkscape:path-effect
       effect="simplify"
       id="path-effect2214"
       is_visible="true"
       lpeversion="1"
       steps="1"
       threshold="0.00275"
       smooth_angles="360"
       helper_size="0"
       simplify_individual_paths="false"
       simplify_just_coalesce="false" />
    <inkscape:path-effect
       effect="skeletal"
       id="path-effect2210"
       is_visible="true"
       lpeversion="1"
       pattern="M 0,4.9921382 C 0,2.2364779 2.2364779,0 4.9921382,0 c 2.7556604,0 4.9921383,2.2364779 4.9921383,4.9921382 0,2.7556604 -2.2364779,4.9921383 -4.9921383,4.9921383 C 2.2364779,9.9842765 0,7.7477986 0,4.9921382 Z"
       copytype="single_stretched"
       prop_scale="1"
       scale_y_rel="false"
       spacing="0"
       normal_offset="0"
       tang_offset="0"
       prop_units="false"
       vertical_pattern="false"
       hide_knot="false"
       fuse_tolerance="0" />
    <inkscape:path-effect
       effect="simplify"
       id="path-effect2206"
       is_visible="true"
       lpeversion="1"
       steps="1"
       threshold="0.00275"
       smooth_angles="360"
       helper_size="0"
       simplify_individual_paths="false"
       simplify_just_coalesce="false" />
  </defs>
  <g
     inkscape:groupmode="layer"
     id="layer4"
     inkscape:label="Füllung"
     style="display:inline"
     transform="translate(-44.534458,-61.604679)" />
  <g
     inkscape:groupmode="layer"
     id="layer3"
     inkscape:label="Wasser rechts"
     style="display:inline"
     transform="translate(-44.534458,-61.604679)" />
  <g
     inkscape:groupmode="layer"
     id="layer2"
     inkscape:label="Wasser links"
     style="display:inline"
     transform="translate(-44.534458,-61.604679)" />
  <g
     inkscape:groupmode="layer"
     id="layer5"
     inkscape:label="kreise"
     transform="translate(-44.534458,-61.604679)" />
  <g
     inkscape:label="Glas"
     inkscape:groupmode="layer"
     id="layer1"
     style="display:inline"
     transform="translate(-44.534458,-61.604679)">
    <g
       id="g50757"
       transform="matrix(0.81964483,0,0,0.91338201,8.0382949,5.3288287)">
      <path
         style="display:inline;fill:#803300;fill-opacity:0;fill-rule:nonzero;stroke:none;stroke-width:0.250394;stroke-miterlimit:4;stroke-dasharray:none;stroke-opacity:1"
         d="m 277.625,613.25105 c -6.74983,-2.74969 -9.34742,-3.9213 -15.29556,-6.89886 -23.26301,-11.64512 -41.21132,-26.24672 -51.85883,-42.18905 -7.55313,-11.30916 -13.27414,-25.04994 -17.10983,-41.09457 -0.3197,-1.33728 -0.51568,-2.497 -0.43553,-2.57716 0.0802,-0.0802 3.44851,0.92135 7.48524,2.22555 34.64146,11.19211 61.59516,18.31734 78.68612,20.80075 2.25512,0.32768 4.14069,0.63625 4.19016,0.68572 0.0495,0.0495 0.0614,16.12101 0.0266,35.71452 l -0.0634,35.62458 z"
         id="path41678"
         transform="scale(0.26458333)" />
      <path
         style="display:inline;fill:#803300;fill-opacity:0;fill-rule:nonzero;stroke:none;stroke-width:0.250394;stroke-miterlimit:4;stroke-dasharray:none;stroke-opacity:1"
         d="m 277.625,613.25105 c -6.74983,-2.74969 -9.34742,-3.9213 -15.29556,-6.89886 -23.26301,-11.64512 -41.21132,-26.24672 -51.85883,-42.18905 -7.55313,-11.30916 -13.27414,-25.04994 -17.10983,-41.09457 -0.3197,-1.33728 -0.51568,-2.497 -0.43553,-2.57716 0.0802,-0.0802 3.44851,0.92135 7.48524,2.22555 34.64146,11.19211 61.59516,18.31734 78.68612,20.80075 2.25512,0.32768 4.14069,0.63625 4.19016,0.68572 0.0495,0.0495 0.0614,16.12101 0.0266,35.71452 l -0.0634,35.62458 z"
         id="path41754"
         transform="scale(0.26458333)" />
      <path
         style="display:inline;fill:#d45500;fill-opacity:0;fill-rule:nonzero;stroke:none;stroke-width:0.500787;stroke-miterlimit:4;stroke-dasharray:none;stroke-opacity:1"
         d="m 275.5,612.2405 c -23.96021,-10.09228 -43.99215,-23.53347 -57.36391,-38.4905 -8.704,-9.7359 -15.86393,-22.60237 -20.76401,-37.31313 -2.47673,-7.43552 -4.45292,-15.0227 -4.02446,-15.45115 0.17511,-0.17512 3.43103,0.69744 7.23538,1.93901 31.92398,10.41857 61.40033,18.1106 80.792,21.08316 l 1.875,0.28742 v 35.47734 c 0,19.51254 -0.16875,35.46362 -0.375,35.44683 -0.20625,-0.0168 -3.525,-1.35733 -7.375,-2.97898 z"
         id="path41793"
         transform="scale(0.26458333)" />
      <path
         style="display:inline;fill:#d45500;fill-opacity:0;fill-rule:nonzero;stroke:none;stroke-width:0.500787;stroke-miterlimit:4;stroke-dasharray:none;stroke-opacity:1"
         d="m 275.5,612.2405 c -23.96021,-10.09228 -43.99215,-23.53347 -57.36391,-38.4905 -8.704,-9.7359 -15.86393,-22.60237 -20.76401,-37.31313 -2.47673,-7.43552 -4.45292,-15.0227 -4.02446,-15.45115 0.17511,-0.17512 3.43103,0.69744 7.23538,1.93901 31.92398,10.41857 61.40033,18.1106 80.792,21.08316 l 1.875,0.28742 v 35.47734 c 0,19.51254 -0.16875,35.46362 -0.375,35.44683 -0.20625,-0.0168 -3.525,-1.35733 -7.375,-2.97898 z"
         id="path41980"
         transform="scale(0.26458333)" />
      <path
         style="display:inline;fill:#d45500;fill-opacity:0;fill-rule:nonzero;stroke:none;stroke-width:0.500787;stroke-miterlimit:4;stroke-dasharray:none;stroke-opacity:1"
         d="m 390.5,634.92961 c -33.60703,-0.87012 -67.05093,-6.3064 -95.375,-15.50314 l -8.375,-2.71934 0.002,-36.10356 0.002,-36.10357 3.99444,-0.0811 c 3.6735,-0.0746 4.36798,-0.26772 8.64324,-2.4039 4.60626,-2.30158 4.71263,-2.32711 11.62822,-2.79126 9.42832,-0.6328 11.8448,-1.17814 13.9285,-3.14332 3.13957,-2.961 4.32806,-10.76925 2.3144,-15.20543 -0.53051,-1.16875 -0.7709,-2.125 -0.5342,-2.125 1.20836,0 19.13705,5.78714 24.07932,7.77248 6.22142,2.49918 9.80046,4.57143 11.61029,6.72228 4.15226,4.93469 16.55956,10.18203 36.08113,15.25956 11.93407,3.10404 15.57544,2.62886 36.80487,-4.80276 24.63277,-8.62301 31.44488,-9.89402 39.26746,-7.32656 2.81306,0.92328 4.50351,1.12009 9.42767,1.09762 5.55348,-0.0253 6.39708,-0.16287 11.33574,-1.84799 10.44472,-3.56384 20.12829,-9.514 30.59736,-18.80084 3.90439,-3.46348 6.7877,-4.73834 12.51973,-5.53559 5.57995,-0.7761 22.34794,-0.66247 38.79717,0.26291 14.84517,0.83514 25.56462,0.71267 28.42207,-0.32472 0.91964,-0.33387 2.10005,-1.30889 2.62313,-2.16671 0.85293,-1.39876 0.95125,-1.4444 0.95293,-0.4424 0.004,2.25166 -3.0532,16.17315 -4.99748,22.75866 -6.30611,21.35946 -16.06183,37.55453 -30.50065,50.63289 -32.2775,29.23622 -87.33844,48.3961 -150,52.19639 -9.63041,0.58406 -25.40023,0.92763 -33.25,0.72439 z"
         id="path42019"
         transform="scale(0.26458333)" />
      <path
         style="display:inline;fill:#d45500;fill-opacity:0;fill-rule:nonzero;stroke:none;stroke-width:0.500787;stroke-miterlimit:4;stroke-dasharray:none;stroke-opacity:1"
         d="m 610.51958,440.375 c -1.31754,-7.2296 -8.83795,-21.28105 -19.14636,-35.7739 -7.21881,-10.14911 -9.78207,-12.35504 -14.34611,-12.34622 -4.53556,0.009 -7.18338,1.67812 -20.38839,12.8541 -8.96696,7.58913 -23.812,18.76368 -27.11189,20.40837 -8.21675,4.09528 -11.73346,-0.90466 -24.27779,-34.51735 -2.25788,-6.05 -5.01764,-12.76535 -6.13282,-14.92299 -2.44427,-4.72918 -6.20117,-8.97791 -9.32034,-10.5405 -7.11318,-3.56345 -13.27571,-1.47115 -28.79588,9.7768 -11.19193,8.11113 -15.91375,11.04151 -20.87366,12.95425 -5.00001,1.92821 -9.11785,2.48289 -13.87634,1.86916 -7.39238,-0.95343 -15.52397,0.28684 -24.5,3.73686 -1.7875,0.68704 -9.6625,4.28244 -17.5,7.98977 -22.19476,10.49867 -32.27483,14.19332 -46.74382,17.13301 -10.53909,2.14125 -29.51868,3.7154 -33.73817,2.79822 -1.24741,-0.27115 -3.73051,-0.72641 -5.51801,-1.01169 -7.74712,-1.23643 -13.46151,-5.98958 -23.97963,-19.94594 -3.38362,-4.48968 -7.54455,-9.55557 -9.24651,-11.25754 -3.90228,-3.90228 -8.35656,-6.34106 -12.22164,-6.69154 -4.822,-0.43724 -6.96484,1.27827 -11.06964,8.86213 -2.79334,5.16086 -4.0081,6.71806 -6.08275,7.7975 -2.67141,1.38994 -4.88054,0.90233 -11.84704,-2.6149 -5.70181,-2.87873 -7.02074,-3.3496 -9.97422,-3.56092 -4.3643,-0.31227 -8.01691,0.73811 -11.31586,3.2541 -2.98067,2.27325 -6.57455,6.62632 -8.69127,10.52727 -0.94473,1.74107 -1.54831,2.4585 -1.55385,1.84695 -0.0142,-1.56701 2.75452,-18.52363 4.73516,-29 5.06575,-26.7947 12.88733,-57.6353 21.27581,-83.89083 l 3.09854,-9.69828 3.47738,1.41513 c 18.26597,7.43339 53.81614,14.06296 94.64552,17.64995 42.93258,3.77177 96.17913,4.24271 142.25,1.25812 34.08731,-2.20826 67.07536,-6.71804 89.41444,-12.2238 7.85688,-1.93643 19.51753,-5.62186 23.85065,-7.53817 3.27943,-1.45032 3.23491,-1.44481 3.23491,-0.40084 0,0.4517 1.47376,5.32536 3.27504,10.83036 5.9734,18.25574 12.87881,43.76726 17.41769,64.34836 5.86226,26.58185 9.48638,49.742 12.0686,77.125 0.34468,3.65512 0.0595,4.52493 -0.49175,1.5 z"
         id="path42058"
         transform="scale(0.26458333)" />
      <path
         style="display:inline;fill:#d45500;fill-opacity:0;fill-rule:nonzero;stroke:none;stroke-width:0.500787;stroke-miterlimit:4;stroke-dasharray:none;stroke-opacity:1"
         d="m 406.75,549.90316 c -4.11883,-0.75777 -16.29697,-4.0759 -22.67086,-6.17706 -10.75707,-3.54606 -16.98361,-6.65012 -20.72081,-10.32974 -3.38246,-3.33036 -7.48944,-5.65803 -14.73525,-8.35136 -5.73335,-2.13114 -22.71561,-7.295 -23.99087,-7.295 -0.48522,0 -0.88221,-0.21853 -0.88221,-0.48561 0,-1.12262 -7.09429,-2.54014 -17.5,-3.49672 -13.0628,-1.20084 -18.62918,-2.1383 -22.95676,-3.86627 -13.84606,-5.52863 -28.72328,-21.01496 -31.82704,-33.1301 -2.03039,-7.92538 1.28054,-11.54409 12.08871,-13.21247 7.28073,-1.12387 9.69509,-2.25075 9.69509,-4.52507 0,-2.35124 -2.14417,-4.02401 -15.74544,-12.28376 -9.26411,-5.62589 -14.25456,-10.4159 -14.25456,-13.68203 0,-2.12755 2.71552,-4.47082 6.32623,-5.45902 1.86563,-0.5106 6.99526,-0.99405 14.17377,-1.33584 28.11838,-1.33881 38.67352,-2.20206 40.35741,-3.30063 0.81943,-0.5346 2.77058,-0.72248 7.50306,-0.72248 11.30592,0 25.8621,-2.20227 38.1405,-5.77045 10.68097,-3.10396 17.82962,-6.01226 35.17715,-14.31123 13.28417,-6.35507 17.98967,-8.35683 24.12015,-10.26089 4.30833,-1.33813 4.77385,-1.37899 14.45173,-1.26848 5.84632,0.0668 11.03842,-0.11313 12.5,-0.43307 5.89881,-1.29126 12.54099,-5.19531 28.632,-16.82893 6.50935,-4.70619 12.37944,-7.79893 16.37814,-8.62906 5.39376,-1.11974 10.39548,1.16131 14.48998,6.6082 3.12324,4.15483 4.90912,8.07792 10.42179,22.89391 11.57269,31.10307 15.2782,35.94516 24.12323,31.52253 3.5092,-1.75465 16.21733,-11.24285 25.62619,-19.13316 14.8632,-12.46433 17.00693,-13.88937 20.89429,-13.88937 2.89544,0 4.28963,0.61554 6.95138,3.06905 4.31789,3.9801 15.7254,20.66479 20.42727,29.87707 3.64731,7.14611 5.03013,10.68389 6.63843,16.98369 l 1.35821,5.32019 0.0142,19 c 0.0213,28.4915 -1.39623,40.01398 -5.27603,42.88651 -2.77799,2.05677 -9.56619,2.30517 -30.42908,1.11349 -15.168,-0.8664 -32.40329,-0.96119 -37.83882,-0.20812 -6.35652,0.88066 -8.65868,1.94072 -13.53571,6.23265 -9.4586,8.32387 -20.37504,14.94506 -30.18806,18.3101 -4.22478,1.44874 -5.2796,1.61024 -10.68741,1.63637 -5.0137,0.0243 -6.60689,-0.16728 -9.6919,-1.16502 -7.42712,-2.40205 -15.42415,-0.93268 -37.79658,6.94472 -16.35469,5.75853 -25.45307,7.94511 -29.76152,7.15246 z"
         id="path42097"
         transform="scale(0.26458333)" />
      <path
         style="display:inline;fill:#d45500;fill-opacity:0;fill-rule:nonzero;stroke:none;stroke-width:0.500787;stroke-miterlimit:4;stroke-dasharray:none;stroke-opacity:1"
         d="m 390.5,634.92961 c -33.60703,-0.87012 -67.05093,-6.3064 -95.375,-15.50314 l -8.375,-2.71934 0.002,-36.10356 0.002,-36.10357 3.99444,-0.0811 c 3.6735,-0.0746 4.36798,-0.26772 8.64324,-2.4039 4.60626,-2.30158 4.71263,-2.32711 11.62822,-2.79126 9.42832,-0.6328 11.8448,-1.17814 13.9285,-3.14332 3.13957,-2.961 4.32806,-10.76925 2.3144,-15.20543 -0.53051,-1.16875 -0.7709,-2.125 -0.5342,-2.125 1.20836,0 19.13705,5.78714 24.07932,7.77248 6.22142,2.49918 9.80046,4.57143 11.61029,6.72228 4.15226,4.93469 16.55956,10.18203 36.08113,15.25956 11.93407,3.10404 15.57544,2.62886 36.80487,-4.80276 24.63277,-8.62301 31.44488,-9.89402 39.26746,-7.32656 2.81306,0.92328 4.50351,1.12009 9.42767,1.09762 5.55348,-0.0253 6.39708,-0.16287 11.33574,-1.84799 10.44472,-3.56384 20.12829,-9.514 30.59736,-18.80084 3.90439,-3.46348 6.7877,-4.73834 12.51973,-5.53559 5.57995,-0.7761 22.34794,-0.66247 38.79717,0.26291 14.84517,0.83514 25.56462,0.71267 28.42207,-0.32472 0.91964,-0.33387 2.10005,-1.30889 2.62313,-2.16671 0.85293,-1.39876 0.95125,-1.4444 0.95293,-0.4424 0.004,2.25166 -3.0532,16.17315 -4.99748,22.75866 -6.30611,21.35946 -16.06183,37.55453 -30.50065,50.63289 -32.2775,29.23622 -87.33844,48.3961 -150,52.19639 -9.63041,0.58406 -25.40023,0.92763 -33.25,0.72439 z"
         id="path42136"
         transform="scale(0.26458333)" />
      <path
         style="display:inline;fill:#d45500;fill-opacity:0;fill-rule:nonzero;stroke:none;stroke-width:0.500787;stroke-miterlimit:4;stroke-dasharray:none;stroke-opacity:1"
         d="m 275.5,612.2405 c -23.96021,-10.09228 -43.99215,-23.53347 -57.36391,-38.4905 -8.704,-9.7359 -15.86393,-22.60237 -20.76401,-37.31313 -2.47673,-7.43552 -4.45292,-15.0227 -4.02446,-15.45115 0.17511,-0.17512 3.43103,0.69744 7.23538,1.93901 31.92398,10.41857 61.40033,18.1106 80.792,21.08316 l 1.875,0.28742 v 35.47734 c 0,19.51254 -0.16875,35.46362 -0.375,35.44683 -0.20625,-0.0168 -3.525,-1.35733 -7.375,-2.97898 z"
         id="path42175"
         transform="scale(0.26458333)" />
      <path
         style="display:inline;fill:#d45500;fill-opacity:0;fill-rule:nonzero;stroke:none;stroke-width:0.500787;stroke-miterlimit:4;stroke-dasharray:none;stroke-opacity:1"
         d="m 275.5,612.2405 c -23.96021,-10.09228 -43.99215,-23.53347 -57.36391,-38.4905 -8.704,-9.7359 -15.86393,-22.60237 -20.76401,-37.31313 -2.47673,-7.43552 -4.45292,-15.0227 -4.02446,-15.45115 0.17511,-0.17512 3.43103,0.69744 7.23538,1.93901 31.92398,10.41857 61.40033,18.1106 80.792,21.08316 l 1.875,0.28742 v 35.47734 c 0,19.51254 -0.16875,35.46362 -0.375,35.44683 -0.20625,-0.0168 -3.525,-1.35733 -7.375,-2.97898 z"
         id="path42214"
         transform="scale(0.26458333)" />
      <path
         style="display:inline;fill:#d45500;fill-opacity:0;fill-rule:nonzero;stroke:none;stroke-width:0.500787;stroke-miterlimit:4;stroke-dasharray:none;stroke-opacity:1"
         d="m 275.5,612.2405 c -23.96021,-10.09228 -43.99215,-23.53347 -57.36391,-38.4905 -8.704,-9.7359 -15.86393,-22.60237 -20.76401,-37.31313 -2.47673,-7.43552 -4.45292,-15.0227 -4.02446,-15.45115 0.17511,-0.17512 3.43103,0.69744 7.23538,1.93901 31.92398,10.41857 61.40033,18.1106 80.792,21.08316 l 1.875,0.28742 v 35.47734 c 0,19.51254 -0.16875,35.46362 -0.375,35.44683 -0.20625,-0.0168 -3.525,-1.35733 -7.375,-2.97898 z"
         id="path42253"
         transform="scale(0.26458333)" />
      <path
         style="display:inline;fill:#d45500;fill-opacity:0;fill-rule:nonzero;stroke:none;stroke-width:0.500787;stroke-miterlimit:4;stroke-dasharray:none;stroke-opacity:1"
         d="m 284.375,615.91886 c -0.49181,-0.19845 -0.625,-7.8617 -0.625,-35.96053 V 544.25 h 1.25 1.25 v 36 c 0,37.21594 0.0407,36.44186 -1.875,35.66886 z"
         id="path42292"
         transform="scale(0.26458333)" />
      <path
         style="display:inline;fill:#d45500;fill-opacity:0;fill-rule:nonzero;stroke:none;stroke-width:0.500787;stroke-miterlimit:4;stroke-dasharray:none;stroke-opacity:1"
         d="m 284.375,615.91886 c -0.49181,-0.19845 -0.625,-7.8617 -0.625,-35.96053 V 544.25 h 1.25 1.25 v 36 c 0,37.21594 0.0407,36.44186 -1.875,35.66886 z"
         id="path42331"
         transform="scale(0.26458333)" />
      <path
         style="display:inline;fill:#ff0000;fill-opacity:0;fill-rule:evenodd;stroke:none;stroke-width:0.500787;stroke-miterlimit:4;stroke-dasharray:none;stroke-opacity:1"
         d="m 285.75,543.93325 c -0.6875,-0.0993 -3.275,-0.42685 -5.75,-0.72787 -8.77035,-1.06668 -23.97269,-4.51126 -41.75,-9.4598 -18.73318,-5.21462 -44.55458,-13.36063 -45.29781,-14.29033 -0.65516,-0.81954 -2.38579,-10.52745 -3.42373,-19.20525 -1.45546,-12.1686 -1.92059,-23.37148 -1.60887,-38.75 0.31994,-15.78413 0.62036,-20.4647 2.40688,-37.5 l 1.10116,-10.5 2.38682,-4.75 c 3.4358,-6.83754 7.10353,-10.95169 12.18555,-13.66873 1.59634,-0.85346 2.87144,-1.07048 6.31768,-1.07527 l 4.31767,-0.006 6.27021,3.18223 c 6.70488,3.40284 9.49247,4.09151 12.51879,3.09274 2.29882,-0.75869 3.60132,-2.34145 6.78159,-8.24082 4.01659,-7.45076 6.59027,-9.39433 11.40531,-8.61295 5.7659,0.93567 11.1869,5.73956 20.6739,18.32042 10.51235,13.9406 15.88305,18.31208 24.01733,19.5489 5.5786,0.84822 6.00979,0.95421 5.72919,1.40823 -0.14258,0.23069 -1.34644,0.56366 -2.67524,0.73994 -3.97648,0.52749 -22.49476,1.71932 -36.10643,2.32378 -13.00002,0.5773 -16.32128,1.08424 -19.34784,2.95313 -6.95146,4.29251 -2.2389,10.48472 16.34784,21.48069 7.19625,4.25733 9.92321,6.32368 10.29376,7.80008 0.71974,2.86767 -0.83085,3.7175 -9.60564,5.26454 -8.44367,1.48866 -11.34418,3.37391 -12.17419,7.9129 -1.56883,8.57927 8.31066,23.66226 21.73607,33.1844 9.31937,6.60988 13.9727,7.96385 34,9.89293 14.12741,1.36079 16.07397,1.86062 18.80697,4.82922 1.67274,1.81695 2.44303,4.15126 2.44303,7.4035 0,5.8736 -2.57654,10.08394 -6.86844,11.22375 -1.03486,0.27483 -4.58156,0.64121 -7.88156,0.81419 -7.28977,0.3821 -11.21335,1.26967 -14.45277,3.26943 -3.38264,2.08818 -7.91645,2.84705 -12.79723,2.14202 z"
         id="path42370"
         transform="scale(0.26458333)" />
      <path
         style="display:inline;fill:#ff0000;fill-opacity:0;fill-rule:evenodd;stroke:none;stroke-width:0.500787;stroke-miterlimit:4;stroke-dasharray:none;stroke-opacity:1"
         d="m 406.75,549.90316 c -4.11883,-0.75777 -16.29697,-4.0759 -22.67086,-6.17706 -10.75707,-3.54606 -16.98361,-6.65012 -20.72081,-10.32974 -3.38246,-3.33036 -7.48944,-5.65803 -14.73525,-8.35136 -5.73335,-2.13114 -22.71561,-7.295 -23.99087,-7.295 -0.48522,0 -0.88221,-0.21853 -0.88221,-0.48561 0,-1.12262 -7.09429,-2.54014 -17.5,-3.49672 -13.0628,-1.20084 -18.62918,-2.1383 -22.95676,-3.86627 -13.84606,-5.52863 -28.72328,-21.01496 -31.82704,-33.1301 -2.03039,-7.92538 1.28054,-11.54409 12.08871,-13.21247 7.28073,-1.12387 9.69509,-2.25075 9.69509,-4.52507 0,-2.35124 -2.14417,-4.02401 -15.74544,-12.28376 -9.26411,-5.62589 -14.25456,-10.4159 -14.25456,-13.68203 0,-2.12755 2.71552,-4.47082 6.32623,-5.45902 1.86563,-0.5106 6.99526,-0.99405 14.17377,-1.33584 28.11838,-1.33881 38.67352,-2.20206 40.35741,-3.30063 0.81943,-0.5346 2.77058,-0.72248 7.50306,-0.72248 11.30592,0 25.8621,-2.20227 38.1405,-5.77045 10.68097,-3.10396 17.82962,-6.01226 35.17715,-14.31123 13.28417,-6.35507 17.98967,-8.35683 24.12015,-10.26089 4.30833,-1.33813 4.77385,-1.37899 14.45173,-1.26848 5.84632,0.0668 11.03842,-0.11313 12.5,-0.43307 5.89881,-1.29126 12.54099,-5.19531 28.632,-16.82893 6.50935,-4.70619 12.37944,-7.79893 16.37814,-8.62906 5.39376,-1.11974 10.39548,1.16131 14.48998,6.6082 3.12324,4.15483 4.90912,8.07792 10.42179,22.89391 11.57269,31.10307 15.2782,35.94516 24.12323,31.52253 3.5092,-1.75465 16.21733,-11.24285 25.62619,-19.13316 14.8632,-12.46433 17.00693,-13.88937 20.89429,-13.88937 2.89544,0 4.28963,0.61554 6.95138,3.06905 4.31789,3.9801 15.7254,20.66479 20.42727,29.87707 3.64731,7.14611 5.03013,10.68389 6.63843,16.98369 l 1.35821,5.32019 0.0142,19 c 0.0213,28.4915 -1.39623,40.01398 -5.27603,42.88651 -2.77799,2.05677 -9.56619,2.30517 -30.42908,1.11349 -15.168,-0.8664 -32.40329,-0.96119 -37.83882,-0.20812 -6.35652,0.88066 -8.65868,1.94072 -13.53571,6.23265 -9.4586,8.32387 -20.37504,14.94506 -30.18806,18.3101 -4.22478,1.44874 -5.2796,1.61024 -10.68741,1.63637 -5.0137,0.0243 -6.60689,-0.16728 -9.6919,-1.16502 -7.42712,-2.40205 -15.42415,-0.93268 -37.79658,6.94472 -16.35469,5.75853 -25.45307,7.94511 -29.76152,7.15246 z"
         id="path42594"
         transform="scale(0.26458333)" />
      <path
         style="display:inline;fill:#ff0000;fill-opacity:0;fill-rule:evenodd;stroke:none;stroke-width:0.500787;stroke-miterlimit:4;stroke-dasharray:none;stroke-opacity:1"
         d="m 390.5,634.92961 c -33.60703,-0.87012 -67.05093,-6.3064 -95.375,-15.50314 l -8.375,-2.71934 0.002,-36.10356 0.002,-36.10357 3.99444,-0.0811 c 3.6735,-0.0746 4.36798,-0.26772 8.64324,-2.4039 4.60626,-2.30158 4.71263,-2.32711 11.62822,-2.79126 9.42832,-0.6328 11.8448,-1.17814 13.9285,-3.14332 3.13957,-2.961 4.32806,-10.76925 2.3144,-15.20543 -0.53051,-1.16875 -0.7709,-2.125 -0.5342,-2.125 1.20836,0 19.13705,5.78714 24.07932,7.77248 6.22142,2.49918 9.80046,4.57143 11.61029,6.72228 4.15226,4.93469 16.55956,10.18203 36.08113,15.25956 11.93407,3.10404 15.57544,2.62886 36.80487,-4.80276 24.63277,-8.62301 31.44488,-9.89402 39.26746,-7.32656 2.81306,0.92328 4.50351,1.12009 9.42767,1.09762 5.55348,-0.0253 6.39708,-0.16287 11.33574,-1.84799 10.44472,-3.56384 20.12829,-9.514 30.59736,-18.80084 3.90439,-3.46348 6.7877,-4.73834 12.51973,-5.53559 5.57995,-0.7761 22.34794,-0.66247 38.79717,0.26291 14.84517,0.83514 25.56462,0.71267 28.42207,-0.32472 0.91964,-0.33387 2.10005,-1.30889 2.62313,-2.16671 0.85293,-1.39876 0.95125,-1.4444 0.95293,-0.4424 0.004,2.25166 -3.0532,16.17315 -4.99748,22.75866 -6.30611,21.35946 -16.06183,37.55453 -30.50065,50.63289 -32.2775,29.23622 -87.33844,48.3961 -150,52.19639 -9.63041,0.58406 -25.40023,0.92763 -33.25,0.72439 z"
         id="path42633"
         transform="scale(0.26458333)" />
      <path
         style="display:inline;fill:#ff6600;fill-opacity:0;fill-rule:evenodd;stroke:none;stroke-width:0.500787;stroke-miterlimit:4;stroke-dasharray:none;stroke-opacity:1"
         d="m 275.5,612.2405 c -23.96021,-10.09228 -43.99215,-23.53347 -57.36391,-38.4905 -8.704,-9.7359 -15.86393,-22.60237 -20.76401,-37.31313 -2.47673,-7.43552 -4.45292,-15.0227 -4.02446,-15.45115 0.17511,-0.17512 3.43103,0.69744 7.23538,1.93901 31.92398,10.41857 61.40033,18.1106 80.792,21.08316 l 1.875,0.28742 v 35.47734 c 0,19.51254 -0.16875,35.46362 -0.375,35.44683 -0.20625,-0.0168 -3.525,-1.35733 -7.375,-2.97898 z"
         id="path42672"
         transform="scale(0.26458333)" />
      <path
         style="display:inline;fill:#ff6600;fill-opacity:0;fill-rule:evenodd;stroke:none;stroke-width:0.500787;stroke-miterlimit:4;stroke-dasharray:none;stroke-opacity:1"
         d="m 390.5,634.92961 c -33.60703,-0.87012 -67.05093,-6.3064 -95.375,-15.50314 l -8.375,-2.71934 0.002,-36.10356 0.002,-36.10357 3.99444,-0.0811 c 3.6735,-0.0746 4.36798,-0.26772 8.64324,-2.4039 4.60626,-2.30158 4.71263,-2.32711 11.62822,-2.79126 9.42832,-0.6328 11.8448,-1.17814 13.9285,-3.14332 3.13957,-2.961 4.32806,-10.76925 2.3144,-15.20543 -0.53051,-1.16875 -0.7709,-2.125 -0.5342,-2.125 1.20836,0 19.13705,5.78714 24.07932,7.77248 6.22142,2.49918 9.80046,4.57143 11.61029,6.72228 4.15226,4.93469 16.55956,10.18203 36.08113,15.25956 11.93407,3.10404 15.57544,2.62886 36.80487,-4.80276 24.63277,-8.62301 31.44488,-9.89402 39.26746,-7.32656 2.81306,0.92328 4.50351,1.12009 9.42767,1.09762 5.55348,-0.0253 6.39708,-0.16287 11.33574,-1.84799 10.44472,-3.56384 20.12829,-9.514 30.59736,-18.80084 3.90439,-3.46348 6.7877,-4.73834 12.51973,-5.53559 5.57995,-0.7761 22.34794,-0.66247 38.79717,0.26291 14.84517,0.83514 25.56462,0.71267 28.42207,-0.32472 0.91964,-0.33387 2.10005,-1.30889 2.62313,-2.16671 0.85293,-1.39876 0.95125,-1.4444 0.95293,-0.4424 0.004,2.25166 -3.0532,16.17315 -4.99748,22.75866 -6.30611,21.35946 -16.06183,37.55453 -30.50065,50.63289 -32.2775,29.23622 -87.33844,48.3961 -150,52.19639 -9.63041,0.58406 -25.40023,0.92763 -33.25,0.72439 z"
         id="path42785"
         transform="scale(0.26458333)" />
      <path
         style="display:inline;fill:#ff6600;fill-opacity:0;fill-rule:evenodd;stroke:none;stroke-width:0.500787;stroke-miterlimit:4;stroke-dasharray:none;stroke-opacity:1"
         d="m 275.5,612.2405 c -23.96021,-10.09228 -43.99215,-23.53347 -57.36391,-38.4905 -8.704,-9.7359 -15.86393,-22.60237 -20.76401,-37.31313 -2.47673,-7.43552 -4.45292,-15.0227 -4.02446,-15.45115 0.17511,-0.17512 3.43103,0.69744 7.23538,1.93901 31.92398,10.41857 61.40033,18.1106 80.792,21.08316 l 1.875,0.28742 v 35.47734 c 0,19.51254 -0.16875,35.46362 -0.375,35.44683 -0.20625,-0.0168 -3.525,-1.35733 -7.375,-2.97898 z"
         id="path42824"
         transform="scale(0.26458333)" />
      <path
         style="display:inline;fill:#ff6600;fill-opacity:0;fill-rule:evenodd;stroke:none;stroke-width:0.500787;stroke-miterlimit:4;stroke-dasharray:none;stroke-opacity:1"
         d="m 285.75,543.93325 c -0.6875,-0.0993 -3.275,-0.42685 -5.75,-0.72787 -8.77035,-1.06668 -23.97269,-4.51126 -41.75,-9.4598 -18.73318,-5.21462 -44.55458,-13.36063 -45.29781,-14.29033 -0.65516,-0.81954 -2.38579,-10.52745 -3.42373,-19.20525 -1.45546,-12.1686 -1.92059,-23.37148 -1.60887,-38.75 0.31994,-15.78413 0.62036,-20.4647 2.40688,-37.5 l 1.10116,-10.5 2.38682,-4.75 c 3.4358,-6.83754 7.10353,-10.95169 12.18555,-13.66873 1.59634,-0.85346 2.87144,-1.07048 6.31768,-1.07527 l 4.31767,-0.006 6.27021,3.18223 c 6.70488,3.40284 9.49247,4.09151 12.51879,3.09274 2.29882,-0.75869 3.60132,-2.34145 6.78159,-8.24082 4.01659,-7.45076 6.59027,-9.39433 11.40531,-8.61295 5.7659,0.93567 11.1869,5.73956 20.6739,18.32042 10.51235,13.9406 15.88305,18.31208 24.01733,19.5489 5.5786,0.84822 6.00979,0.95421 5.72919,1.40823 -0.14258,0.23069 -1.34644,0.56366 -2.67524,0.73994 -3.97648,0.52749 -22.49476,1.71932 -36.10643,2.32378 -13.00002,0.5773 -16.32128,1.08424 -19.34784,2.95313 -6.95146,4.29251 -2.2389,10.48472 16.34784,21.48069 7.19625,4.25733 9.92321,6.32368 10.29376,7.80008 0.71974,2.86767 -0.83085,3.7175 -9.60564,5.26454 -8.44367,1.48866 -11.34418,3.37391 -12.17419,7.9129 -1.56883,8.57927 8.31066,23.66226 21.73607,33.1844 9.31937,6.60988 13.9727,7.96385 34,9.89293 14.12741,1.36079 16.07397,1.86062 18.80697,4.82922 1.67274,1.81695 2.44303,4.15126 2.44303,7.4035 0,5.8736 -2.57654,10.08394 -6.86844,11.22375 -1.03486,0.27483 -4.58156,0.64121 -7.88156,0.81419 -7.28977,0.3821 -11.21335,1.26967 -14.45277,3.26943 -3.38264,2.08818 -7.91645,2.84705 -12.79723,2.14202 z"
         id="path42900"
         transform="scale(0.26458333)" />
      <path
         style="display:inline;fill:#ff6600;fill-opacity:0;fill-rule:evenodd;stroke:none;stroke-width:0.500787;stroke-miterlimit:4;stroke-dasharray:none;stroke-opacity:1"
         d="m 390.5,634.92961 c -33.60703,-0.87012 -67.05093,-6.3064 -95.375,-15.50314 l -8.375,-2.71934 0.002,-36.10356 0.002,-36.10357 3.99444,-0.0811 c 3.6735,-0.0746 4.36798,-0.26772 8.64324,-2.4039 4.60626,-2.30158 4.71263,-2.32711 11.62822,-2.79126 9.42832,-0.6328 11.8448,-1.17814 13.9285,-3.14332 3.13957,-2.961 4.32806,-10.76925 2.3144,-15.20543 -0.53051,-1.16875 -0.7709,-2.125 -0.5342,-2.125 1.20836,0 19.13705,5.78714 24.07932,7.77248 6.22142,2.49918 9.80046,4.57143 11.61029,6.72228 4.15226,4.93469 16.55956,10.18203 36.08113,15.25956 11.93407,3.10404 15.57544,2.62886 36.80487,-4.80276 24.63277,-8.62301 31.44488,-9.89402 39.26746,-7.32656 2.81306,0.92328 4.50351,1.12009 9.42767,1.09762 5.55348,-0.0253 6.39708,-0.16287 11.33574,-1.84799 10.44472,-3.56384 20.12829,-9.514 30.59736,-18.80084 3.90439,-3.46348 6.7877,-4.73834 12.51973,-5.53559 5.57995,-0.7761 22.34794,-0.66247 38.79717,0.26291 14.84517,0.83514 25.56462,0.71267 28.42207,-0.32472 0.91964,-0.33387 2.10005,-1.30889 2.62313,-2.16671 0.85293,-1.39876 0.95125,-1.4444 0.95293,-0.4424 0.004,2.25166 -3.0532,16.17315 -4.99748,22.75866 -6.30611,21.35946 -16.06183,37.55453 -30.50065,50.63289 -32.2775,29.23622 -87.33844,48.3961 -150,52.19639 -9.63041,0.58406 -25.40023,0.92763 -33.25,0.72439 z"
         id="path42939"
         transform="scale(0.26458333)" />
      <path
         style="display:inline;fill:#ff6600;fill-opacity:0;fill-rule:evenodd;stroke:none;stroke-width:0.500787;stroke-miterlimit:4;stroke-dasharray:none;stroke-opacity:1"
         d="m 275.5,612.2405 c -23.96021,-10.09228 -43.99215,-23.53347 -57.36391,-38.4905 -8.704,-9.7359 -15.86393,-22.60237 -20.76401,-37.31313 -2.47673,-7.43552 -4.45292,-15.0227 -4.02446,-15.45115 0.17511,-0.17512 3.43103,0.69744 7.23538,1.93901 31.92398,10.41857 61.40033,18.1106 80.792,21.08316 l 1.875,0.28742 v 35.47734 c 0,19.51254 -0.16875,35.46362 -0.375,35.44683 -0.20625,-0.0168 -3.525,-1.35733 -7.375,-2.97898 z"
         id="path42978"
         transform="scale(0.26458333)" />
      <path
         style="display:inline;fill:#ff6600;fill-opacity:0;fill-rule:evenodd;stroke:none;stroke-width:0.500787;stroke-miterlimit:4;stroke-dasharray:none;stroke-opacity:1"
         d="m 406.75,549.90316 c -4.11883,-0.75777 -16.29697,-4.0759 -22.67086,-6.17706 -10.75707,-3.54606 -16.98361,-6.65012 -20.72081,-10.32974 -3.38246,-3.33036 -7.48944,-5.65803 -14.73525,-8.35136 -5.73335,-2.13114 -22.71561,-7.295 -23.99087,-7.295 -0.48522,0 -0.88221,-0.21853 -0.88221,-0.48561 0,-1.12262 -7.09429,-2.54014 -17.5,-3.49672 -13.0628,-1.20084 -18.62918,-2.1383 -22.95676,-3.86627 -13.84606,-5.52863 -28.72328,-21.01496 -31.82704,-33.1301 -2.03039,-7.92538 1.28054,-11.54409 12.08871,-13.21247 7.28073,-1.12387 9.69509,-2.25075 9.69509,-4.52507 0,-2.35124 -2.14417,-4.02401 -15.74544,-12.28376 -9.26411,-5.62589 -14.25456,-10.4159 -14.25456,-13.68203 0,-2.12755 2.71552,-4.47082 6.32623,-5.45902 1.86563,-0.5106 6.99526,-0.99405 14.17377,-1.33584 28.11838,-1.33881 38.67352,-2.20206 40.35741,-3.30063 0.81943,-0.5346 2.77058,-0.72248 7.50306,-0.72248 11.30592,0 25.8621,-2.20227 38.1405,-5.77045 10.68097,-3.10396 17.82962,-6.01226 35.17715,-14.31123 13.28417,-6.35507 17.98967,-8.35683 24.12015,-10.26089 4.30833,-1.33813 4.77385,-1.37899 14.45173,-1.26848 5.84632,0.0668 11.03842,-0.11313 12.5,-0.43307 5.89881,-1.29126 12.54099,-5.19531 28.632,-16.82893 6.50935,-4.70619 12.37944,-7.79893 16.37814,-8.62906 5.39376,-1.11974 10.39548,1.16131 14.48998,6.6082 3.12324,4.15483 4.90912,8.07792 10.42179,22.89391 11.57269,31.10307 15.2782,35.94516 24.12323,31.52253 3.5092,-1.75465 16.21733,-11.24285 25.62619,-19.13316 14.8632,-12.46433 17.00693,-13.88937 20.89429,-13.88937 2.89544,0 4.28963,0.61554 6.95138,3.06905 4.31789,3.9801 15.7254,20.66479 20.42727,29.87707 3.64731,7.14611 5.03013,10.68389 6.63843,16.98369 l 1.35821,5.32019 0.0142,19 c 0.0213,28.4915 -1.39623,40.01398 -5.27603,42.88651 -2.77799,2.05677 -9.56619,2.30517 -30.42908,1.11349 -15.168,-0.8664 -32.40329,-0.96119 -37.83882,-0.20812 -6.35652,0.88066 -8.65868,1.94072 -13.53571,6.23265 -9.4586,8.32387 -20.37504,14.94506 -30.18806,18.3101 -4.22478,1.44874 -5.2796,1.61024 -10.68741,1.63637 -5.0137,0.0243 -6.60689,-0.16728 -9.6919,-1.16502 -7.42712,-2.40205 -15.42415,-0.93268 -37.79658,6.94472 -16.35469,5.75853 -25.45307,7.94511 -29.76152,7.15246 z"
         id="path43017"
         transform="scale(0.26458333)" />
      <path
         style="display:inline;fill:#ff6600;fill-opacity:0;fill-rule:evenodd;stroke:none;stroke-width:0.500787;stroke-miterlimit:4;stroke-dasharray:none;stroke-opacity:1"
         d="m 390.5,634.92961 c -33.60703,-0.87012 -67.05093,-6.3064 -95.375,-15.50314 l -8.375,-2.71934 0.002,-36.10356 0.002,-36.10357 3.99444,-0.0811 c 3.6735,-0.0746 4.36798,-0.26772 8.64324,-2.4039 4.60626,-2.30158 4.71263,-2.32711 11.62822,-2.79126 9.42832,-0.6328 11.8448,-1.17814 13.9285,-3.14332 3.13957,-2.961 4.32806,-10.76925 2.3144,-15.20543 -0.53051,-1.16875 -0.7709,-2.125 -0.5342,-2.125 1.20836,0 19.13705,5.78714 24.07932,7.77248 6.22142,2.49918 9.80046,4.57143 11.61029,6.72228 4.15226,4.93469 16.55956,10.18203 36.08113,15.25956 11.93407,3.10404 15.57544,2.62886 36.80487,-4.80276 24.63277,-8.62301 31.44488,-9.89402 39.26746,-7.32656 2.81306,0.92328 4.50351,1.12009 9.42767,1.09762 5.55348,-0.0253 6.39708,-0.16287 11.33574,-1.84799 10.44472,-3.56384 20.12829,-9.514 30.59736,-18.80084 3.90439,-3.46348 6.7877,-4.73834 12.51973,-5.53559 5.57995,-0.7761 22.34794,-0.66247 38.79717,0.26291 14.84517,0.83514 25.56462,0.71267 28.42207,-0.32472 0.91964,-0.33387 2.10005,-1.30889 2.62313,-2.16671 0.85293,-1.39876 0.95125,-1.4444 0.95293,-0.4424 0.004,2.25166 -3.0532,16.17315 -4.99748,22.75866 -6.30611,21.35946 -16.06183,37.55453 -30.50065,50.63289 -32.2775,29.23622 -87.33844,48.3961 -150,52.19639 -9.63041,0.58406 -25.40023,0.92763 -33.25,0.72439 z"
         id="path43056"
         transform="scale(0.26458333)" />
      <path
         style="display:inline;fill:#ff6600;fill-opacity:0;fill-rule:evenodd;stroke:none;stroke-width:0.500787;stroke-miterlimit:4;stroke-dasharray:none;stroke-opacity:1"
         d="m 275.5,612.2405 c -23.96021,-10.09228 -43.99215,-23.53347 -57.36391,-38.4905 -8.704,-9.7359 -15.86393,-22.60237 -20.76401,-37.31313 -2.47673,-7.43552 -4.45292,-15.0227 -4.02446,-15.45115 0.17511,-0.17512 3.43103,0.69744 7.23538,1.93901 31.92398,10.41857 61.40033,18.1106 80.792,21.08316 l 1.875,0.28742 v 35.47734 c 0,19.51254 -0.16875,35.46362 -0.375,35.44683 -0.20625,-0.0168 -3.525,-1.35733 -7.375,-2.97898 z"
         id="path43095"
         transform="scale(0.26458333)" />
      <path
         style="display:inline;fill:#ff6600;fill-opacity:0;fill-rule:evenodd;stroke:none;stroke-width:0.500787;stroke-miterlimit:4;stroke-dasharray:none;stroke-opacity:1"
         d="m 284.375,615.91886 c -0.49181,-0.19845 -0.625,-7.8617 -0.625,-35.96053 V 544.25 h 1.25 1.25 v 36 c 0,37.21594 0.0407,36.44186 -1.875,35.66886 z"
         id="path43134"
         transform="scale(0.26458333)" />
      <path
         style="display:inline;fill:#ff6600;fill-opacity:0;fill-rule:evenodd;stroke:none;stroke-width:0.500787;stroke-miterlimit:4;stroke-dasharray:none;stroke-opacity:1"
         d="m 284.375,615.91886 c -0.49181,-0.19845 -0.625,-7.8617 -0.625,-35.96053 V 544.25 h 1.25 1.25 v 36 c 0,37.21594 0.0407,36.44186 -1.875,35.66886 z"
         id="path43173"
         transform="scale(0.26458333)" />
      <rect
         style="display:inline;fill:#ff6600;fill-opacity:0;fill-rule:evenodd;stroke:none;stroke-width:0.264999;stroke-miterlimit:4;stroke-dasharray:none;stroke-opacity:1"
         id="rect43234"
         width="23.91007"
         height="20.083536"
         x="97.244934"
         y="150.26233" />
      <rect
         style="display:inline;fill:#ff6600;fill-opacity:0;fill-rule:evenodd;stroke:none;stroke-width:0.264999;stroke-miterlimit:4;stroke-dasharray:none;stroke-opacity:1"
         id="rect43346"
         width="14.125559"
         height="12.292491"
         x="92.294594"
         y="146.49187" />
      <path
         style="display:inline;fill:none;fill-opacity:1;fill-rule:evenodd;stroke:none;stroke-width:0.500787;stroke-miterlimit:4;stroke-dasharray:none;stroke-opacity:1"
         d="m 275.5,612.2405 c -23.96021,-10.09228 -43.99215,-23.53347 -57.36391,-38.4905 -8.704,-9.7359 -15.86393,-22.60237 -20.76401,-37.31313 -2.47673,-7.43552 -4.45292,-15.0227 -4.02446,-15.45115 0.17511,-0.17512 3.43103,0.69744 7.23538,1.93901 31.92398,10.41857 61.40033,18.1106 80.792,21.08316 l 1.875,0.28742 v 35.47734 c 0,19.51254 -0.16875,35.46362 -0.375,35.44683 -0.20625,-0.0168 -3.525,-1.35733 -7.375,-2.97898 z"
         id="path43814"
         transform="scale(0.26458333)" />
      <path
         style="display:inline;fill:#aa4400;fill-opacity:1;fill-rule:evenodd;stroke:none;stroke-width:0.500787;stroke-miterlimit:4;stroke-dasharray:none;stroke-opacity:1"
         d="m 608.91211,507.25195 c -1.87533,1.0834 -2.9861,3.56764 -5.53907,3.48047 -12.04895,1.52554 -24.45258,-0.46777 -36.70453,-0.61311 -10.85884,-0.0849 -21.90998,-1.05219 -32.63336,1.07502 -7.19684,1.56011 -11.45474,8.27123 -17.47104,11.95839 -10.41384,7.21513 -22.37808,14.29738 -35.50845,13.50255 -8.03546,-1.21789 -15.76942,-5.07118 -24.12228,-4.6163 -12.17918,-0.78184 -24.71203,1.21762 -35.35996,7.42388 -5.88918,3.6478 -12.68421,4.39152 -19.34784,4.03129 -12.77573,-0.56611 -26.06411,-2.78797 -37.18457,-9.47656 -13.76464,-12.71379 -32.84727,-11.03472 -48.96501,-9.89036 -18.30162,1.77387 -36.63242,5.3457 -54.98792,2.83613 -22.69203,-2.1707 -45.29736,-5.303 -67.98749,-7.55515 -2.22604,0.83246 -0.14285,3.85264 -0.10154,5.51807 5.09136,20.22598 14.10462,40.09659 29.39841,54.67041 22.86518,22.20493 52.88172,35.36406 83.17696,43.99262 46.25547,12.71611 95.09204,15.19806 142.60792,9.25534 37.52828,-5.01424 75.10924,-15.34919 107.33719,-35.75675 17.33359,-10.98494 32.70411,-25.8397 41.59766,-44.55567 6.73713,-13.83522 10.91977,-28.88922 13.01953,-44.09375 0.0156,-0.65528 -0.51524,-1.32911 -1.22461,-1.18652 z"
         id="path46610"
         sodipodi:nodetypes="ccccccccccccccccccccc"
         transform="scale(0.26458333)" />
      <path
         style="display:inline;fill:#ff7f2a;stroke:none;stroke-width:0.265;stroke-linecap:butt;stroke-linejoin:miter;stroke-miterlimit:4;stroke-dasharray:none;stroke-opacity:1"
         d="m 66.887388,112.72265 c 0,0 -4.392991,-1.33148 13.414097,-0.99848 17.807085,0.33301 24.479035,-9.81832 32.487995,-8.41725 8.00896,1.40107 15.2095,-15.303512 20.26856,-1.3631 5.05907,13.94041 5.00141,12.38111 11.17928,7.79974 6.17788,-4.58137 7.9385,-8.40166 11.19413,-4.00494 3.25562,4.39672 4.58965,6.88923 5.51285,9.15983 0.92321,2.27061 1.38698,5.56662 1.23006,7.66802 -0.15692,2.1014 0.29319,10.8743 -1.59378,12.43886 -1.88696,1.56456 -18.13448,-1.55905 -20.96358,1.20664 -2.8291,2.76568 -9.34458,7.39564 -13.94842,5.63843 -4.60384,-1.7572 -10.69254,-1.15676 -14.35535,1.23386 -3.69396,2.41095 -14.18016,-0.29866 -15.362527,-2.04319 -1.182368,-1.74452 -9.235596,-3.73988 -10.529814,-4.17685 -1.294217,-0.43696 -23.562005,1.57762 -23.562005,1.57762 L 57.70064,114.78895 Z"
         id="path10370"
         sodipodi:nodetypes="csssssssssssssccc" />
      <path
         style="display:inline;fill:#ff6600;stroke:#ff6600;stroke-width:0.264583px;stroke-linecap:butt;stroke-linejoin:miter;stroke-opacity:1"
         d="m 50.728307,137.36905 -0.96895,-8.02703 -0.116683,-8.5676 0.910191,-10.79313 c 0,0 2.522415,-8.54396 8.501411,-4.80852 5.978996,3.73544 4.042453,-4.92531 8.438695,-3.58749 4.396245,1.33782 6.284791,9.64217 11.858352,10.03488 5.57356,0.39271 -12.463933,1.10249 -12.463933,1.10249 0,0 -4.953767,0.67424 -1.520031,3.77057 3.433739,3.09634 11.049616,5.20966 3.698322,6.07927 -7.351297,0.86961 0.879272,12.74496 7.313247,12.98293 6.797853,0.25143 9.401446,1.22731 13.745762,1.76239 1.217447,0.33657 5.329075,2.9764 2.547553,1.7155 -4.440227,-1.48793 -16.341053,0.98851 -20.244098,0.73159 -5.685604,-0.37425 -21.699838,-2.39582 -21.699838,-2.39582 z"
         id="path9164"
         sodipodi:nodetypes="ccccssscsssccscc" />
      <g
         id="g50644"
         transform="matrix(0.86624485,0,0,0.86624485,7.9653612,201.94536)">
        <path
           fill="#ffffff"
           fill-opacity="1"
           stroke="#222222"
           stroke-opacity="1"
           stroke-width="4.18515"
           stroke-dasharray="none"
           stroke-linejoin="round"
           stroke-linecap="butt"
           stroke-dashoffset=""
           fill-rule="nonzero"
           opacity="1"
           d="m 72.334711,-106.62067 c 0,-6.36379 5.146366,-11.51846 11.499904,-11.51846 6.353537,0 11.499903,5.15467 11.499903,11.51846 0,6.36379 -5.146366,11.518457 -11.499903,11.518457 -6.353538,0 -11.499904,-5.154667 -11.499904,-11.518457 z"
           id="svg_21" />
        <path
           fill="#ffffff"
           fill-opacity="1"
           stroke="#222222"
           stroke-opacity="1"
           stroke-width="4.18515"
           stroke-dasharray="none"
           stroke-linejoin="round"
           stroke-linecap="butt"
           stroke-dashoffset=""
           fill-rule="nonzero"
           opacity="1"
           d="m 72.334711,-106.62067 c 0,-6.36379 5.146366,-11.51846 11.499904,-11.51846 6.353537,0 11.499903,5.15467 11.499903,11.51846 0,6.36379 -5.146366,11.518457 -11.499903,11.518457 -6.353538,0 -11.499904,-5.154667 -11.499904,-11.518457 z"
           id="svg_22" />
        <path
           fill="#ffffff"
           fill-opacity="1"
           stroke="#222222"
           stroke-opacity="1"
           stroke-width="4.18515"
           stroke-dasharray="none"
           stroke-linejoin="round"
           stroke-linecap="butt"
           stroke-dashoffset=""
           fill-rule="nonzero"
           opacity="1"
           d="m 87.530559,-64.238552 c 0,-8.485049 6.86182,-15.357945 15.333201,-15.357945 8.47139,0 15.33321,6.872896 15.33321,15.357945 0,8.485055 -6.86182,15.357943 -15.33321,15.357943 -8.471381,0 -15.333201,-6.872888 -15.333201,-15.357943 z"
           id="svg_23" />
        <path
           fill="#ffffff"
           fill-opacity="1"
           stroke="#222222"
           stroke-opacity="1"
           stroke-width="4.18515"
           stroke-dasharray="none"
           stroke-linejoin="round"
           stroke-linecap="butt"
           stroke-dashoffset=""
           fill-rule="nonzero"
           opacity="1"
           d="m 133.19949,-122.9748 c 0,-4.6282 3.74281,-8.37706 8.36357,-8.37706 4.62075,0 8.36357,3.74886 8.36357,8.37706 0,4.62822 -3.74282,8.37707 -8.36357,8.37707 -4.62076,0 -8.36357,-3.74885 -8.36357,-8.37707 z"
           id="svg_24" />
        <path
           fill="#ffffff"
           fill-opacity="1"
           stroke="#222222"
           stroke-opacity="1"
           stroke-width="4.18515"
           stroke-dasharray="none"
           stroke-linejoin="round"
           stroke-linecap="butt"
           stroke-dashoffset=""
           fill-rule="nonzero"
           opacity="1"
           d="m 106.77592,-102.85507 c 0,-2.89263 2.33925,-5.23566 5.22722,-5.23566 2.88798,0 5.22723,2.34303 5.22723,5.23566 0,2.892631 -2.33925,5.235664 -5.22723,5.235664 -2.88797,0 -5.22722,-2.343033 -5.22722,-5.235664 z"
           id="svg_25" />
        <path
           fill="#ffffff"
           fill-opacity="1"
           stroke="#222222"
           stroke-opacity="1"
           stroke-width="4.18515"
           stroke-dasharray="none"
           stroke-linejoin="round"
           stroke-linecap="butt"
           stroke-dashoffset=""
           fill-rule="nonzero"
           opacity="1"
           d="m 127.47625,-74.072937 c 0,-4.242527 3.43091,-7.678973 7.6666,-7.678973 4.2357,0 7.6666,3.436446 7.6666,7.678973 0,4.242528 -3.4309,7.678973 -7.6666,7.678973 -4.23569,0 -7.6666,-3.436445 -7.6666,-7.678973 z"
           id="svg_26" />
        <path
           fill="#ffffff"
           fill-opacity="1"
           stroke="#222222"
           stroke-opacity="1"
           stroke-width="4.18515"
           stroke-dasharray="none"
           stroke-linejoin="round"
           stroke-linecap="butt"
           stroke-dashoffset=""
           fill-rule="nonzero"
           opacity="1"
           d="m 89.092727,-94.174833 8.648456,16.305713"
           id="svg_27" />
        <path
           fill="#ffffff"
           fill-opacity="1"
           stroke="#222222"
           stroke-opacity="1"
           stroke-width="4.18515"
           stroke-dasharray="none"
           stroke-linejoin="round"
           stroke-linecap="butt"
           stroke-dashoffset=""
           fill-rule="nonzero"
           opacity="1"
           d="m 109.95077,-96.722601 -4.06986,16.305715"
           id="svg_28" />
        <path
           fill="#ffffff"
           fill-opacity="1"
           stroke="#222222"
           stroke-opacity="1"
           stroke-width="4.18515"
           stroke-dasharray="none"
           stroke-linejoin="round"
           stroke-linecap="butt"
           stroke-dashoffset=""
           fill-rule="nonzero"
           opacity="1"
           d="m 116.0085,-100.56638 14.33863,19.40728"
           id="svg_29" />
        <path
           fill="#ffffff"
           fill-opacity="1"
           stroke="#222222"
           stroke-opacity="1"
           stroke-width="4.18515"
           stroke-dasharray="none"
           stroke-linejoin="round"
           stroke-linecap="butt"
           stroke-dashoffset=""
           fill-rule="nonzero"
           opacity="1"
           d="m 139.966,-114.04742 -3.56113,32.611431"
           id="svg_30" />
        <path
           fill="#ffffff"
           fill-opacity="1"
           stroke="#222222"
           stroke-opacity="1"
           stroke-width="4.18515"
           stroke-dasharray="none"
           stroke-linejoin="round"
           stroke-linecap="butt"
           stroke-dashoffset=""
           fill-rule="nonzero"
           opacity="1"
           d="m 72.334711,-106.62067 c 0,-6.36379 5.146366,-11.51846 11.499904,-11.51846 6.353537,0 11.499903,5.15467 11.499903,11.51846 0,6.36379 -5.146366,11.518457 -11.499903,11.518457 -6.353538,0 -11.499904,-5.154667 -11.499904,-11.518457 z"
           id="svg_5" />
        <path
           fill="#ffffff"
           fill-opacity="1"
           stroke="#222222"
           stroke-opacity="1"
           stroke-width="4.18515"
           stroke-dasharray="none"
           stroke-linejoin="round"
           stroke-linecap="butt"
           stroke-dashoffset=""
           fill-rule="nonzero"
           opacity="1"
           d="m 72.334711,-106.62067 c 0,-6.36379 5.146366,-11.51846 11.499904,-11.51846 6.353537,0 11.499903,5.15467 11.499903,11.51846 0,6.36379 -5.146366,11.518457 -11.499903,11.518457 -6.353538,0 -11.499904,-5.154667 -11.499904,-11.518457 z"
           id="svg_1" />
        <path
           fill="#ffffff"
           fill-opacity="1"
           stroke="#222222"
           stroke-opacity="1"
           stroke-width="4.18515"
           stroke-dasharray="none"
           stroke-linejoin="round"
           stroke-linecap="butt"
           stroke-dashoffset=""
           fill-rule="nonzero"
           opacity="1"
           d="m 87.530559,-64.238552 c 0,-8.485049 6.86182,-15.357945 15.333201,-15.357945 8.47139,0 15.33321,6.872896 15.33321,15.357945 0,8.485055 -6.86182,15.357943 -15.33321,15.357943 -8.471381,0 -15.333201,-6.872888 -15.333201,-15.357943 z"
           id="svg_7" />
        <path
           fill="#ffffff"
           fill-opacity="1"
           stroke="#222222"
           stroke-opacity="1"
           stroke-width="4.18515"
           stroke-dasharray="none"
           stroke-linejoin="round"
           stroke-linecap="butt"
           stroke-dashoffset=""
           fill-rule="nonzero"
           opacity="1"
           d="m 133.19949,-122.9748 c 0,-4.6282 3.74281,-8.37706 8.36357,-8.37706 4.62075,0 8.36357,3.74886 8.36357,8.37706 0,4.62822 -3.74282,8.37707 -8.36357,8.37707 -4.62076,0 -8.36357,-3.74885 -8.36357,-8.37707 z"
           id="svg_9" />
        <path
           fill="#ffffff"
           fill-opacity="1"
           stroke="#222222"
           stroke-opacity="1"
           stroke-width="4.18515"
           stroke-dasharray="none"
           stroke-linejoin="round"
           stroke-linecap="butt"
           stroke-dashoffset=""
           fill-rule="nonzero"
           opacity="1"
           d="m 106.77592,-102.85507 c 0,-2.89263 2.33925,-5.23566 5.22722,-5.23566 2.88798,0 5.22723,2.34303 5.22723,5.23566 0,2.892631 -2.33925,5.235664 -5.22723,5.235664 -2.88797,0 -5.22722,-2.343033 -5.22722,-5.235664 z"
           id="svg_11" />
        <path
           fill="#ffffff"
           fill-opacity="1"
           stroke="#222222"
           stroke-opacity="1"
           stroke-width="4.18515"
           stroke-dasharray="none"
           stroke-linejoin="round"
           stroke-linecap="butt"
           stroke-dashoffset=""
           fill-rule="nonzero"
           opacity="1"
           d="m 127.47625,-74.072937 c 0,-4.242527 3.43091,-7.678973 7.6666,-7.678973 4.2357,0 7.6666,3.436446 7.6666,7.678973 0,4.242528 -3.4309,7.678973 -7.6666,7.678973 -4.23569,0 -7.6666,-3.436445 -7.6666,-7.678973 z"
           id="svg_13" />
        <path
           fill="#ffffff"
           fill-opacity="1"
           stroke="#222222"
           stroke-opacity="1"
           stroke-width="4.18515"
           stroke-dasharray="none"
           stroke-linejoin="round"
           stroke-linecap="butt"
           stroke-dashoffset=""
           fill-rule="nonzero"
           opacity="1"
           d="m 89.092727,-94.174833 8.648456,16.305713"
           id="svg_6" />
        <path
           fill="#ffffff"
           fill-opacity="1"
           stroke="#222222"
           stroke-opacity="1"
           stroke-width="4.18515"
           stroke-dasharray="none"
           stroke-linejoin="round"
           stroke-linecap="butt"
           stroke-dashoffset=""
           fill-rule="nonzero"
           opacity="1"
           d="m 109.95077,-96.722601 -4.06986,16.305715"
           id="svg_10" />
        <path
           fill="#ffffff"
           fill-opacity="1"
           stroke="#222222"
           stroke-opacity="1"
           stroke-width="4.18515"
           stroke-dasharray="none"
           stroke-linejoin="round"
           stroke-linecap="butt"
           stroke-dashoffset=""
           fill-rule="nonzero"
           opacity="1"
           d="m 116.00852,-100.56638 14.33862,19.40728"
           id="svg_14" />
        <path
           fill="#ffffff"
           fill-opacity="1"
           stroke="#222222"
           stroke-opacity="1"
           stroke-width="4.18515"
           stroke-dasharray="none"
           stroke-linejoin="round"
           stroke-linecap="butt"
           stroke-dashoffset=""
           fill-rule="nonzero"
           opacity="1"
           d="m 139.966,-114.04742 -3.56113,32.611431"
           id="svg_16" />
      </g>
      <ellipse
         style="fill:none;fill-rule:evenodd;stroke:#000000;stroke-width:0.299951;stroke-miterlimit:4;stroke-dasharray:none;stroke-opacity:1"
         id="path31"
         cx="105.54233"
         cy="71.622147"
         rx="51.15966"
         ry="9.85956" />
      <path
         style="fill:none;stroke:#000000;stroke-width:0.3;stroke-linecap:butt;stroke-linejoin:miter;stroke-miterlimit:4;stroke-dasharray:none;stroke-opacity:1"
         d="m 54.384453,71.638051 c 0,0 -21.834532,61.120899 0,82.955429 21.834532,21.83453 80.544957,21.77176 102.316717,0 21.77176,-21.77176 0,-82.422756 0,-82.422756 v -0.538269"
         id="path1026"
         sodipodi:nodetypes="czzcc" />
      <path
         style="fill:none;stroke:#000000;stroke-width:0.278933;stroke-linecap:butt;stroke-linejoin:miter;stroke-miterlimit:4;stroke-dasharray:none;stroke-opacity:1"
         d="m 58.450023,75.539897 c 0,0 -20.224885,57.043133 0,77.420933 20.224885,20.37781 74.607167,20.31923 94.773907,0 20.16674,-20.31922 0,-76.923798 0,-76.923798 v -0.502358"
         id="path1026-0"
         sodipodi:nodetypes="czzcc" />
    </g>
  </g>
</svg>
